<?xml version="1.0" encoding="UTF-8"?>
<svg version="1.1" xmlns="http://www.w3.org/2000/svg" width="587" height="237">
<path d="M0 0 C1.31162109 0.00257812 2.62324219 0.00515625 3.97460938 0.0078125 C4.98841675 0.02956543 4.98841675 0.02956543 6.02270508 0.05175781 C8.08836941 0.09372005 10.15077672 0.09281196 12.21679688 0.0859375 C23.84551051 0.20033704 23.84551051 0.20033704 28.02734375 3.59375 C30.40835168 7.63288005 30.29035 11.73634034 30.22265625 16.30078125 C30.21982635 17.02617599 30.21699646 17.75157074 30.21408081 18.49894714 C30.20294174 20.80155368 30.17784941 23.10376227 30.15234375 25.40625 C30.14230581 26.97330165 30.13318138 28.54035943 30.125 30.10742188 C30.10302305 33.93634978 30.06853714 37.76498256 30.02734375 41.59375 C31.00082764 41.58327637 31.97431152 41.57280273 32.97729492 41.56201172 C36.6020945 41.52570794 40.22687811 41.5028119 43.85180664 41.48388672 C45.41824042 41.47385274 46.98465558 41.46022246 48.55102539 41.44287109 C50.80750128 41.41850775 53.06372869 41.40724084 55.3203125 41.3984375 C56.01634079 41.38811493 56.71236908 41.37779236 57.42948914 41.36715698 C61.39875292 41.36624891 64.57524781 41.55879007 68.02734375 43.59375 C71.17849002 47.45498952 71.40272394 50.61233747 71.390625 55.50390625 C71.3896582 57.48293945 71.3896582 57.48293945 71.38867188 59.50195312 C71.38037354 60.18394775 71.3720752 60.86594238 71.36352539 61.56860352 C71.33987438 63.6535494 71.34297927 65.73721905 71.34960938 67.82226562 C71.28785559 79.30285654 71.28785559 79.30285654 69.02734375 82.59375 C65.23891902 85.11936648 62.24201046 84.84766573 57.859375 84.7890625 C56.66715584 84.78481766 56.66715584 84.78481766 55.45085144 84.78048706 C52.91369537 84.76929705 50.37689303 84.74419491 47.83984375 84.71875 C46.11914573 84.70871866 44.39844216 84.69959308 42.67773438 84.69140625 C38.46080132 84.66936161 34.2441325 84.63484006 30.02734375 84.59375 C30.03781738 85.56723389 30.04829102 86.54071777 30.05908203 87.54370117 C30.09538581 91.16850075 30.11828185 94.79328436 30.13720703 98.41821289 C30.14724101 99.98464667 30.16087129 101.55106183 30.17822266 103.11743164 C30.202586 105.37390753 30.21385291 107.63013494 30.22265625 109.88671875 C30.23297882 110.58274704 30.24330139 111.27877533 30.25393677 111.99589539 C30.25505497 116.88366362 29.53024847 120.2963 26.86083984 124.37695312 C23.9992684 126.27603063 21.0150245 126.06153075 17.69140625 126.0625 C16.97503998 126.07011353 16.25867371 126.07772705 15.52059937 126.08557129 C14.00595582 126.09636854 12.49123784 126.09922687 10.9765625 126.09472656 C8.66669368 126.09375603 6.36016867 126.13533307 4.05078125 126.1796875 C2.57682982 126.1848963 1.10286688 126.18758266 -0.37109375 126.1875 C-1.05771088 126.20389526 -1.744328 126.22029053 -2.45175171 126.23718262 C-6.05617515 126.18563108 -7.92476682 125.62651143 -10.91723633 123.5793457 C-13.54696675 119.75953654 -13.61244069 116.70192647 -13.4609375 112.23046875 C-13.45386276 111.43848587 -13.44678802 110.64650299 -13.4394989 109.83052063 C-13.41161869 107.31311611 -13.34889825 104.79797644 -13.28515625 102.28125 C-13.26006486 100.5696937 -13.23725316 98.85810235 -13.21679688 97.14648438 C-13.16181372 92.96137346 -13.07559043 88.77794504 -12.97265625 84.59375 C-14.56920044 84.6251709 -14.56920044 84.6251709 -16.19799805 84.65722656 C-20.15814691 84.72978962 -24.11823735 84.77560851 -28.07885742 84.81347656 C-29.79087211 84.83355505 -31.50281853 84.86082392 -33.21459961 84.89550781 C-35.67969633 84.94419401 -38.14388415 84.96675573 -40.609375 84.984375 C-41.75184944 85.01534271 -41.75184944 85.01534271 -42.91740417 85.04693604 C-46.43490547 85.04841128 -48.81785557 84.67386125 -51.95605469 83.04980469 C-54.65764001 79.75949617 -54.67770912 76.98699158 -54.6015625 72.90625 C-54.60397446 72.16673096 -54.60638641 71.42721191 -54.60887146 70.6652832 C-54.60789407 69.10525132 -54.59452581 67.54518429 -54.56958008 65.98535156 C-54.53526078 63.60101203 -54.54892367 61.22037873 -54.56835938 58.8359375 C-54.56146063 57.3176926 -54.55178797 55.79945724 -54.5390625 54.28125 C-54.54402237 53.57073486 -54.54898224 52.86021973 -54.55409241 52.12817383 C-54.47376747 48.74252256 -54.20526277 46.89811451 -52.12475586 44.17578125 C-48.04419474 41.17611749 -44.08655774 41.46175932 -39.2421875 41.49609375 C-38.11655647 41.49821617 -38.11655647 41.49821617 -36.96818542 41.50038147 C-34.57380165 41.5059744 -32.17951172 41.51852556 -29.78515625 41.53125 C-28.16080864 41.53626592 -26.53645957 41.54082866 -24.91210938 41.54492188 C-20.93225556 41.55594152 -16.95247181 41.57320127 -12.97265625 41.59375 C-13.00407715 40.52938721 -13.03549805 39.46502441 -13.06787109 38.3684082 C-13.17671096 34.40843132 -13.24543803 30.4485857 -13.30224609 26.48754883 C-13.33236603 24.77540841 -13.37327217 23.06342163 -13.42529297 21.35180664 C-13.49832861 18.88649589 -13.53215727 16.4232287 -13.55859375 13.95703125 C-13.58956146 13.19538162 -13.62052917 12.43373199 -13.6524353 11.64900208 C-13.6550638 7.47083822 -13.14546591 5.79212504 -10.37182617 2.6081543 C-6.53125811 0.33217016 -4.42906281 -0.0263083 0 0 Z " fill="#0174D8" transform="translate(84.97265625,68.40625)"/>
<path d="M0 0 C4.95 0 9.9 0 15 0 C16.21075326 3.73056882 17.41991973 7.4616044 18.62548828 11.19384766 C19.23175043 13.0685676 19.840447 14.94249974 20.44921875 16.81640625 C23.14431964 25.16680081 25.64390578 33.54893375 28 42 C29.2301429 38.16697928 30.45900213 34.33354826 31.6875 30.5 C32.05109619 29.36626953 32.41469238 28.23253906 32.78930664 27.06445312 C34.41532998 21.98632924 36.03698783 16.90752201 37.609375 11.8125 C37.83794189 11.07193359 38.06650879 10.33136719 38.30200195 9.56835938 C38.90082374 7.61937045 39.49547051 5.66910017 40.08984375 3.71875 C41 1 41 1 42 0 C44.53049402 -0.07313567 47.03304837 -0.09247527 49.5625 -0.0625 C50.62887695 -0.05573242 50.62887695 -0.05573242 51.71679688 -0.04882812 C53.47790013 -0.03700864 55.23896036 -0.01907263 57 0 C55.59598806 7.02594181 53.53573288 13.60399771 51.12109375 20.34375 C50.74896255 21.39405396 50.37683136 22.44435791 49.99342346 23.52648926 C49.21175239 25.72916515 48.42752764 27.93093632 47.64086914 30.13183594 C46.4320083 33.51537097 45.23200865 36.90195339 44.03320312 40.2890625 C43.27134913 42.43247507 42.50899726 44.57571076 41.74609375 46.71875 C41.3856749 47.73529663 41.02525604 48.75184326 40.65391541 49.79919434 C40.1531826 51.19700134 40.1531826 51.19700134 39.64233398 52.62304688 C39.34858383 53.44639526 39.05483368 54.26974365 38.75218201 55.11804199 C38 57 38 57 37 58 C35.65732587 58.08631874 34.31025678 58.10706473 32.96484375 58.09765625 C32.15595703 58.09443359 31.34707031 58.09121094 30.51367188 58.08789062 C29.66353516 58.07951172 28.81339844 58.07113281 27.9375 58.0625 C27.08349609 58.05798828 26.22949219 58.05347656 25.34960938 58.04882812 C23.23304337 58.03700373 21.11651315 58.01906769 19 58 C18.20697964 55.75522656 17.41401879 53.51043212 16.62109375 51.265625 C16.37333694 50.56428436 16.12558014 49.86294373 15.87031555 49.14035034 C14.50685971 45.28009803 13.14452693 41.41945443 11.78417969 37.55810547 C11.23505527 35.99966418 10.68590174 34.44123315 10.13671875 32.8828125 C9.86534088 32.11270844 9.59396301 31.34260437 9.31436157 30.54916382 C7.77029026 26.17143691 6.2143 21.79828495 4.64453125 17.4296875 C4.31718994 16.5128418 3.98984863 15.59599609 3.65258789 14.65136719 C3.06696392 13.01219034 2.47658487 11.3747016 1.88061523 9.73925781 C0.64186924 6.25555429 0 3.74617962 0 0 Z " fill="#024182" transform="translate(180,116)"/>
<path d="M0 0 C4.62 0 9.24 0 14 0 C14.33 9.9 14.66 19.8 15 30 C16.32 28.35 17.64 26.7 19 25 C20.34280264 23.73573865 21.71697827 22.50369709 23.125 21.3125 C25.15588091 19.5843353 27.11354179 17.88645821 29 16 C31.58064129 15.85502015 34.04943884 15.81322455 36.625 15.875 C37.33140625 15.88402344 38.0378125 15.89304688 38.765625 15.90234375 C40.51056098 15.92592397 42.25532295 15.96179539 44 16 C42.13176354 20.95023163 37.89461743 24.10332482 34.08007812 27.578125 C32.24353261 29.27578552 32.24353261 29.27578552 30 32 C30.30036242 35.46318777 32.09370185 38.00233822 33.94140625 40.87890625 C34.52470703 41.79994141 35.10800781 42.72097656 35.70898438 43.66992188 C36.94757313 45.60285121 38.18716145 47.5351404 39.42773438 49.46679688 C40.00974609 50.38654297 40.59175781 51.30628906 41.19140625 52.25390625 C41.72967041 53.09252197 42.26793457 53.9311377 42.82250977 54.79516602 C44 57 44 57 44 60 C38.98649073 60.96259378 33.86692301 61.89547415 29 60 C24.35685481 55.69051806 21.67762682 49.64506738 19 44 C16.90948181 45.05413634 16.90948181 45.05413634 15 47 C14.29875226 50.18596662 14.29875226 50.18596662 14.25 53.6875 C14.1675 55.770625 14.085 57.85375 14 60 C9.38 60 4.76 60 0 60 C0 40.2 0 20.4 0 0 Z " fill="#044181" transform="translate(485,114)"/>
<path d="M0 0 C4.29518359 3.843059 5.43847138 8.42790834 6 14 C6.2132064 19.99946612 6.11651652 25.99939936 6 32 C6.99 32 7.98 32 9 32 C9 35.3 9 38.6 9 42 C7.08404032 42.08133791 5.16708068 42.13934367 3.25 42.1875 C1.64898437 42.23970703 1.64898437 42.23970703 0.015625 42.29296875 C-3.30027855 41.97082786 -4.59016673 41.22851086 -7 39 C-7.721875 39.66 -8.44375 40.32 -9.1875 41 C-14.17095886 44.34212873 -20.27363428 43.61197802 -26 43 C-29.73437938 41.64789712 -32.5201673 40.13242026 -35 37 C-36.64758591 32.05724228 -36.78870488 27.08774822 -34.9375 22.1875 C-31.51590741 18.32441159 -27.10963605 15.90380603 -22 15 C-19.5842094 14.93168013 -17.16665287 14.91512358 -14.75 14.9375 C-12.85507813 14.95103516 -12.85507813 14.95103516 -10.921875 14.96484375 C-9.95765625 14.97644531 -8.9934375 14.98804688 -8 15 C-8.99 12.69 -9.98 10.38 -11 8 C-13.87364791 7.58253392 -13.87364791 7.58253392 -17 8 C-17.99 9.65 -18.98 11.3 -20 13 C-24.29 12.67 -28.58 12.34 -33 12 C-34 8 -34 8 -32.875 5.5 C-25.12505242 -4.83326344 -10.94658251 -5.56931391 0 0 Z M-21 26 C-22.23901711 27.87092681 -22.23901711 27.87092681 -22 30 C-20.54331238 32.45714369 -20.54331238 32.45714369 -18 34 C-14.52533284 34 -12.75190593 33.70005035 -10.1875 31.3125 C-8.76956473 28.55125763 -8.34885393 26.06991457 -8 23 C-15.02053429 22.58887035 -15.02053429 22.58887035 -21 26 Z " fill="#024182" transform="translate(268,132)"/>
<path d="M0 0 C4.91153029 5.14771772 5.54459035 10.33737275 5.43945312 17.234375 C5.37661133 18.85085937 5.37661133 18.85085937 5.3125 20.5 C5.28994141 21.60859375 5.26738281 22.7171875 5.24414062 23.859375 C5.18562829 26.57434753 5.10370491 29.2864413 5 32 C6.32 32 7.64 32 9 32 C9 35.3 9 38.6 9 42 C7.08404032 42.08133791 5.16708068 42.13934367 3.25 42.1875 C1.64898437 42.23970703 1.64898437 42.23970703 0.015625 42.29296875 C-3.30027855 41.97082786 -4.59016673 41.22851086 -7 39 C-7.9075 39.66 -8.815 40.32 -9.75 41 C-14.89414077 43.94399909 -20.24700811 43.65611312 -26 43 C-30.69610932 41.4066772 -33.58374599 39.36784378 -36 35 C-36.66633121 30.45547144 -36.53348203 26.44353962 -34.9375 22.125 C-29.51814764 16.18119418 -22.95153989 14.97660779 -15.25 14.4375 C-13.49429687 14.31181641 -13.49429687 14.31181641 -11.703125 14.18359375 C-10.81109375 14.12300781 -9.9190625 14.06242187 -9 14 C-9.66 12.02 -10.32 10.04 -11 8 C-13.87364791 7.58253392 -13.87364791 7.58253392 -17 8 C-17.99 9.65 -18.98 11.3 -20 13 C-24.29 12.67 -28.58 12.34 -33 12 C-34 7 -34 7 -33.1015625 5.0859375 C-25.2558508 -4.00512526 -10.44094636 -6.603699 0 0 Z M-21 26 C-21.88658466 28.59122743 -21.88658466 28.59122743 -22 31 C-19.73367014 33.09845357 -18.64750486 34.01618762 -15.5 33.9375 C-12.43388212 32.78770579 -11.00815554 31.58191427 -9 29 C-8.11341534 26.40877257 -8.11341534 26.40877257 -8 24 C-9.14913969 22.63392985 -9.14913969 22.63392985 -12.25 22.75 C-16.21364619 23.01424308 -17.99724095 23.43882316 -21 26 Z " fill="#024183" transform="translate(426,132)"/>
<path d="M0 0 C5.21733996 -0.73368843 9.80851863 -1.06868032 15 0 C18.66679831 3.52755281 20.8622962 7.41042506 23 12 C24.14747465 10.37615858 25.2929291 8.75088944 26.4375 7.125 C27.07558594 6.22007812 27.71367187 5.31515625 28.37109375 4.3828125 C29.99518138 2.12261419 29.99518138 2.12261419 31 0 C35.95 0 40.9 0 46 0 C44.87766521 5.61167394 44.87766521 5.61167394 42.2421875 8.84765625 C41.69949219 9.53537109 41.15679687 10.22308594 40.59765625 10.93164062 C39.44421887 12.3583982 38.28794014 13.78286316 37.12890625 15.20507812 C36.31873047 16.2347168 36.31873047 16.2347168 35.4921875 17.28515625 C34.99058105 17.90269775 34.48897461 18.52023926 33.97216797 19.15649414 C32.81753284 20.94659477 32.81753284 20.94659477 33.16040039 22.97973633 C34.13806179 25.33220741 35.35571492 27.04433623 36.94140625 29.0390625 C37.52470703 29.78414062 38.10800781 30.52921875 38.70898438 31.296875 C39.32064453 32.06515625 39.93230469 32.8334375 40.5625 33.625 C41.77643778 35.1554514 42.98629812 36.68914881 44.19140625 38.2265625 C44.72967041 38.90283691 45.26793457 39.57911133 45.82250977 40.27587891 C47 42 47 42 47 44 C35.96174562 45.4467615 35.96174562 45.4467615 31 44 C27.26529695 40.49102076 25.10087144 36.6440316 23 32 C22.52433594 32.86625 22.04867188 33.7325 21.55859375 34.625 C16.0529338 43.3853871 16.0529338 43.3853871 12.1015625 44.56835938 C7.69094182 45.06265307 3.38715071 44.6242586 -1 44 C0.83255096 38.03545517 5.06118367 33.56722831 8.91992188 28.79492188 C9.45552734 28.10849609 9.99113281 27.42207031 10.54296875 26.71484375 C11.03821045 26.09730225 11.53345215 25.47976074 12.04370117 24.84350586 C13.18420427 23.04839702 13.18420427 23.04839702 12.82373047 21.00439453 C11.89950382 18.75546129 10.7836408 17.12314526 9.27734375 15.21484375 C8.73916016 14.51939453 8.20097656 13.82394531 7.64648438 13.10742188 C6.50376725 11.65649762 5.36053491 10.205979 4.21679688 8.75585938 C3.67990234 8.06169922 3.14300781 7.36753906 2.58984375 6.65234375 C2.09347412 6.02320068 1.59710449 5.39405762 1.08569336 4.74584961 C0 3 0 3 0 0 Z " fill="#034181" transform="translate(279,130)"/>
<path d="M0 0 C4.87796313 3.0336093 8.34589974 7.1421403 9.828125 12.67578125 C9.84875 13.50078125 9.869375 14.32578125 9.890625 15.17578125 C5.35361006 16.62762603 1.71001024 17.41087321 -3.109375 17.17578125 C-4.429375 14.86578125 -5.749375 12.55578125 -7.109375 10.17578125 C-9.749375 10.17578125 -12.389375 10.17578125 -15.109375 10.17578125 C-18.6768478 15.67563516 -18.80459662 20.83188395 -18.109375 27.17578125 C-17.22610353 30.32517587 -17.22610353 30.32517587 -15.109375 32.17578125 C-12.26309909 33.51128972 -12.26309909 33.51128972 -9.109375 33.17578125 C-6.48981956 31.02192456 -4.62964203 29.21631531 -3.109375 26.17578125 C-1.31730953 26.31662921 0.47427417 26.46361826 2.265625 26.61328125 C3.76222656 26.73509766 3.76222656 26.73509766 5.2890625 26.859375 C7.890625 27.17578125 7.890625 27.17578125 9.890625 28.17578125 C9.35518272 32.72704063 7.71341478 35.59007531 4.890625 39.17578125 C-2.50195328 44.7579322 -9.06699856 44.87829662 -18.109375 44.17578125 C-24.32472949 42.55608134 -28.68129397 38.5096047 -32.109375 33.17578125 C-35.21745276 25.54686311 -34.9708382 17.88325774 -32.0703125 10.24609375 C-29.63416017 4.99747288 -26.62356846 2.140728 -21.421875 -0.19921875 C-14.31076242 -2.72456185 -7.02167461 -3.01132793 0 0 Z " fill="#044281" transform="translate(471.109375,130.82421875)"/>
<path d="M0 0 C0 3.63 0 7.26 0 11 C1.134375 10.979375 2.26875 10.95875 3.4375 10.9375 C7 11 7 11 8 12 C8.07179964 13.51928038 8.08392007 15.04167482 8.0625 16.5625 C8.05347656 17.38878906 8.04445313 18.21507812 8.03515625 19.06640625 C8.02355469 19.70449219 8.01195312 20.34257812 8 21 C5.36 21 2.72 21 0 21 C0 28.92 0 36.84 0 45 C2.64 45 5.28 45 8 45 C8 48.3 8 51.6 8 55 C5.26916098 55.13548815 2.54508193 55.23429855 -0.1875 55.3125 C-0.95642578 55.35439453 -1.72535156 55.39628906 -2.51757812 55.43945312 C-3.64389648 55.46362305 -3.64389648 55.46362305 -4.79296875 55.48828125 C-5.82200317 55.52755737 -5.82200317 55.52755737 -6.87182617 55.56762695 C-10.33477383 54.64398886 -11.82530194 52.77784429 -14 50 C-14.56762695 46.77026367 -14.56762695 46.77026367 -14.48828125 43.16796875 C-14.47216797 41.87568359 -14.45605469 40.58339844 -14.43945312 39.25195312 C-14.39768274 37.89711843 -14.35535809 36.54230072 -14.3125 35.1875 C-14.28740069 33.81319134 -14.26459036 32.43883884 -14.24414062 31.06445312 C-14.18526461 27.70852024 -14.1030642 24.3548191 -14 21 C-15.98 21 -17.96 21 -20 21 C-20 17.7 -20 14.4 -20 11 C-18.02 11 -16.04 11 -14 11 C-14 8.36 -14 5.72 -14 3 C-12.4188708 2.49307308 -10.83498617 1.99473557 -9.25 1.5 C-8.36828125 1.2215625 -7.4865625 0.943125 -6.578125 0.65625 C-4 0 -4 0 0 0 Z " fill="#034282" transform="translate(346,119)"/>
<path d="M0 0 C0.66 0.33 1.32 0.66 2 1 C1.67 4.96 1.34 8.92 1 13 C-0.4025 12.95875 -1.805 12.9175 -3.25 12.875 C-6.74528896 12.77219738 -9.20130359 12.79111151 -12 15 C-15.21189218 21.40908461 -15.52483425 27.4170686 -15.6875 34.5 C-15.73874023 36.01980469 -15.73874023 36.01980469 -15.79101562 37.5703125 C-15.8727767 40.04650507 -15.9380808 42.52323183 -16 45 C-20.62 45 -25.24 45 -30 45 C-30 30.48 -30 15.96 -30 1 C-25.38 1 -20.76 1 -16 1 C-15.67 1.99 -15.34 2.98 -15 4 C-14.401875 3.525625 -13.80375 3.05125 -13.1875 2.5625 C-8.86292957 -0.52647888 -5.10427671 -0.16204053 0 0 Z " fill="#064382" transform="translate(389,129)"/>
<path d="M0 0 C4.91153029 5.14771772 5.54459035 10.33737275 5.43945312 17.234375 C5.37661133 18.85085937 5.37661133 18.85085937 5.3125 20.5 C5.28994141 21.60859375 5.26738281 22.7171875 5.24414062 23.859375 C5.18562829 26.57434753 5.10370491 29.2864413 5 32 C4.01 31.505 4.01 31.505 3 31 C2.970271 30.09290283 2.970271 30.09290283 2.93994141 29.16748047 C2.84413701 26.40291491 2.73468445 23.63904826 2.625 20.875 C2.5940625 19.92367187 2.563125 18.97234375 2.53125 17.9921875 C2.32458612 13.03225445 2.09247669 8.59140569 0 4 C-0.66 3.67 -1.32 3.34 -2 3 C-2.33 3.99 -2.66 4.98 -3 6 C-3.99 6.33 -4.98 6.66 -6 7 C-7.16470196 9.96705961 -7.16470196 9.96705961 -7 13.125 C-7 14.07375 -7 15.0225 -7 16 C-8 17 -8 17 -10.15234375 17.02734375 C-11.53099609 16.98287109 -11.53099609 16.98287109 -12.9375 16.9375 C-18.5177493 16.87176408 -23.59227901 17.6861936 -29 19 C-29 19.66 -29 20.32 -29 21 C-29.65484375 21.39832031 -30.3096875 21.79664063 -30.984375 22.20703125 C-33.33806485 23.90397821 -33.33806485 23.90397821 -33.390625 27.13671875 C-33.34421875 28.30847656 -33.2978125 29.48023438 -33.25 30.6875 C-33.21390625 31.86699219 -33.1778125 33.04648438 -33.140625 34.26171875 C-33.09421875 35.16535156 -33.0478125 36.06898438 -33 37 C-32.21625 37.309375 -31.4325 37.61875 -30.625 37.9375 C-28 39 -28 39 -26 40 C-20.95624681 40.30351789 -15.90739626 40.308639 -11 39 C-11.65585189 35.39007621 -11.65585189 35.39007621 -13 32 C-12.525625 31.608125 -12.05125 31.21625 -11.5625 30.8125 C-9.64820367 28.59191626 -9.38733012 26.86624291 -9 24 C-12.3 24 -15.6 24 -19 24 C-14.09164613 20.3187346 -12.84493669 20.61672546 -7 21 C-6 22 -6 22 -5.875 25.3125 C-6 29 -6 29 -6.625 31.1875 C-7.13936245 33.67358516 -6.28423608 34.88478763 -5 37 C-4.34 37 -3.68 37 -3 37 C-3 37.99 -3 38.98 -3 40 C0.63 40.33 4.26 40.66 8 41 C8 38.36 8 35.72 8 33 C7.01 32.505 7.01 32.505 6 32 C6.99 32 7.98 32 9 32 C9 35.3 9 38.6 9 42 C7.08404032 42.08133791 5.16708068 42.13934367 3.25 42.1875 C1.64898437 42.23970703 1.64898437 42.23970703 0.015625 42.29296875 C-3.30027855 41.97082786 -4.59016673 41.22851086 -7 39 C-7.9075 39.66 -8.815 40.32 -9.75 41 C-14.89414077 43.94399909 -20.24700811 43.65611312 -26 43 C-30.69610932 41.4066772 -33.58374599 39.36784378 -36 35 C-36.66633121 30.45547144 -36.53348203 26.44353962 -34.9375 22.125 C-29.51814764 16.18119418 -22.95153989 14.97660779 -15.25 14.4375 C-13.49429687 14.31181641 -13.49429687 14.31181641 -11.703125 14.18359375 C-10.81109375 14.12300781 -9.9190625 14.06242187 -9 14 C-9.66 12.02 -10.32 10.04 -11 8 C-13.87364791 7.58253392 -13.87364791 7.58253392 -17 8 C-17.99 9.65 -18.98 11.3 -20 13 C-24.29 12.67 -28.58 12.34 -33 12 C-34 7 -34 7 -33.1015625 5.0859375 C-25.2558508 -4.00512526 -10.44094636 -6.603699 0 0 Z " fill="#0C447C" transform="translate(426,132)"/>
<path d="M0 0 C4.95 0 9.9 0 15 0 C16.21075326 3.73056882 17.41991973 7.4616044 18.62548828 11.19384766 C19.23175043 13.0685676 19.840447 14.94249974 20.44921875 16.81640625 C23.14431964 25.16680081 25.64390578 33.54893375 28 42 C29.2301429 38.16697928 30.45900213 34.33354826 31.6875 30.5 C32.05109619 29.36626953 32.41469238 28.23253906 32.78930664 27.06445312 C34.41532998 21.98632924 36.03698783 16.90752201 37.609375 11.8125 C37.83794189 11.07193359 38.06650879 10.33136719 38.30200195 9.56835938 C38.90082374 7.61937045 39.49547051 5.66910017 40.08984375 3.71875 C41 1 41 1 42 0 C44.53049402 -0.07313567 47.03304837 -0.09247527 49.5625 -0.0625 C50.62887695 -0.05573242 50.62887695 -0.05573242 51.71679688 -0.04882812 C53.47790013 -0.03700864 55.23896036 -0.01907263 57 0 C55.63125844 6.95776959 53.5466871 13.38603107 51 20 C49.8515625 18.453125 49.8515625 18.453125 49 16 C49.66831503 13.43134571 50.39301656 11.19008007 51.375 8.75 C51.6225 8.1003125 51.87 7.450625 52.125 6.78125 C52.73639014 5.18222963 53.36640959 3.59035444 54 2 C50.37 2 46.74 2 43 2 C40.68160859 9.09646936 40.68160859 9.09646936 39.5625 16.4375 C39.17249537 21.11755553 37.61022838 25.11328766 35.921875 29.46875 C34.89500853 32.28828167 34.32240603 35.01774424 34 38 C33.34 38 32.68 38 32 38 C32 38.99 32 39.98 32 41 C31.34 41 30.68 41 30 41 C29.67 43.31 29.34 45.62 29 48 C28.34 48 27.68 48 27 48 C25.30812835 43.40777696 24.36759961 38.88325126 23.5625 34.07421875 C23.376875 33.38972656 23.19125 32.70523438 23 32 C22.34 31.67 21.68 31.34 21 31 C20.1986381 28.14258915 19.50291494 25.33288557 18.875 22.4375 C18.69324219 21.63119141 18.51148438 20.82488281 18.32421875 19.99414062 C17.87532882 17.99776175 17.43670257 15.9990802 17 14 C13.95865509 15.66924071 13.95865509 15.66924071 13 18 C12.01979625 19.0194119 11.02196992 20.02246356 10 21 C9.34 20.67 8.68 20.34 8 20 C8.27714844 20.54527344 8.55429688 21.09054688 8.83984375 21.65234375 C11.51288916 27.21722476 12.60894933 31.84095196 13 38 C13.66 38 14.32 38 15 38 C15.28875 38.9075 15.5775 39.815 15.875 40.75 C16.84485626 43.84543451 16.84485626 43.84543451 18.0625 45.9375 C19.39144402 48.86117685 19.58183112 51.83386419 20 55 C21.87900728 56.87900728 24.85823825 56.30277505 27.375 56.375 C28.53773438 56.42398438 29.70046875 56.47296875 30.8984375 56.5234375 C34.14936842 56.32930027 34.14936842 56.32930027 35.80859375 53.734375 C36.20175781 52.83203125 36.59492188 51.9296875 37 51 C37.31324219 50.29617187 37.62648437 49.59234375 37.94921875 48.8671875 C38.19285156 48.20976562 38.43648437 47.55234375 38.6875 46.875 C39.06455078 45.88113281 39.06455078 45.88113281 39.44921875 44.8671875 C40.14146334 42.84488387 40.14146334 42.84488387 40 40 C40.99 39.67 41.98 39.34 43 39 C43.185625 37.5459375 43.185625 37.5459375 43.375 36.0625 C43.58125 35.051875 43.7875 34.04125 44 33 C44.66 32.67 45.32 32.34 46 32 C40.30245232 54.69754768 40.30245232 54.69754768 37 58 C35.65732587 58.08631874 34.31025678 58.10706473 32.96484375 58.09765625 C32.15595703 58.09443359 31.34707031 58.09121094 30.51367188 58.08789062 C29.66353516 58.07951172 28.81339844 58.07113281 27.9375 58.0625 C27.08349609 58.05798828 26.22949219 58.05347656 25.34960938 58.04882812 C23.23304337 58.03700373 21.11651315 58.01906769 19 58 C18.20697964 55.75522656 17.41401879 53.51043212 16.62109375 51.265625 C16.37333694 50.56428436 16.12558014 49.86294373 15.87031555 49.14035034 C14.50685971 45.28009803 13.14452693 41.41945443 11.78417969 37.55810547 C11.23505527 35.99966418 10.68590174 34.44123315 10.13671875 32.8828125 C9.86534088 32.11270844 9.59396301 31.34260437 9.31436157 30.54916382 C7.77029026 26.17143691 6.2143 21.79828495 4.64453125 17.4296875 C4.31718994 16.5128418 3.98984863 15.59599609 3.65258789 14.65136719 C3.06696392 13.01219034 2.47658487 11.3747016 1.88061523 9.73925781 C0.64186924 6.25555429 0 3.74617962 0 0 Z " fill="#024081" transform="translate(180,116)"/>
<path d="M0 0 C2.97 0 5.94 0 9 0 C9.28875 1.134375 9.5775 2.26875 9.875 3.4375 C10.24625 4.613125 10.6175 5.78875 11 7 C11.66 7.33 12.32 7.66 13 8 C13 8.66 13 9.32 13 10 C12.01 10.495 12.01 10.495 11 11 C10.27306096 12.97888961 9.60183749 14.97954558 9 17 C9.33 17.33 9.66 17.66 10 18 C10.08713831 19.70772358 10.10700007 21.41898649 10.09765625 23.12890625 C10.09443359 24.16337891 10.09121094 25.19785156 10.08789062 26.26367188 C10.07951172 27.35228516 10.07113281 28.44089844 10.0625 29.5625 C10.05798828 30.65498047 10.05347656 31.74746094 10.04882812 32.87304688 C10.0369984 35.58205432 10.01906231 38.2910338 10 41 C6.7 41 3.4 41 0 41 C0 27.47 0 13.94 0 0 Z " fill="#024183" transform="translate(361,132)"/>
<path d="M0 0 C0 4.65395038 -0.08308708 9.29744868 -0.21875 13.94921875 C-0.2384082 14.63423462 -0.25806641 15.31925049 -0.27832031 16.02502441 C-0.35174446 18.57919647 -0.42591687 21.13334697 -0.5 23.6875 C-0.665 29.400625 -0.83 35.11375 -1 41 C-12.88 41.33 -24.76 41.66 -37 42 C-37.33 42.99 -37.66 43.98 -38 45 C-39.32 45 -40.64 45 -42 45 C-41.67 55.89 -41.34 66.78 -41 78 C-37.33043403 79.22318866 -33.87678997 79.23116124 -30.05078125 79.31640625 C-28.89185616 79.3475779 -28.89185616 79.3475779 -27.70951843 79.37937927 C-25.2439352 79.44471038 -22.77824639 79.50368315 -20.3125 79.5625 C-18.63996309 79.60570087 -16.96743681 79.64931566 -15.29492188 79.69335938 C-11.1967225 79.8003749 -7.09841704 79.90168857 -3 80 C-3 80.66 -3 81.32 -3 82 C-8.03534236 82.0990984 -13.07011342 82.1715758 -18.10620117 82.21972656 C-19.81821586 82.23980505 -21.53016228 82.26707392 -23.24194336 82.30175781 C-25.70704008 82.35044401 -28.1712279 82.37300573 -30.63671875 82.390625 C-31.77919319 82.42159271 -31.77919319 82.42159271 -32.94474792 82.45318604 C-36.46224922 82.45466128 -38.84519932 82.08011125 -41.98339844 80.45605469 C-44.68498376 77.16574617 -44.70505287 74.39324158 -44.62890625 70.3125 C-44.63131821 69.57298096 -44.63373016 68.83346191 -44.63621521 68.0715332 C-44.63523782 66.51150132 -44.62186956 64.95143429 -44.59692383 63.39160156 C-44.56260453 61.00726203 -44.57626742 58.62662873 -44.59570312 56.2421875 C-44.58880438 54.7239426 -44.57913172 53.20570724 -44.56640625 51.6875 C-44.57136612 50.97698486 -44.57632599 50.26646973 -44.58143616 49.53442383 C-44.50111122 46.14877256 -44.23260652 44.30436451 -42.15209961 41.58203125 C-38.07153849 38.58236749 -34.11390149 38.86800932 -29.26953125 38.90234375 C-28.14390022 38.90446617 -28.14390022 38.90446617 -26.99552917 38.90663147 C-24.6011454 38.9122244 -22.20685547 38.92477556 -19.8125 38.9375 C-18.18815239 38.94251592 -16.56380332 38.94707866 -14.93945312 38.95117188 C-10.95959931 38.96219152 -6.97981556 38.97945127 -3 39 C-3.01571045 37.92516357 -3.0314209 36.85032715 -3.04760742 35.74291992 C-3.10189111 31.75666797 -3.13634421 27.77044872 -3.16479492 23.78393555 C-3.17988516 22.05829373 -3.20035975 20.33269028 -3.22631836 18.60717773 C-3.26269209 16.12734512 -3.27972359 13.64801936 -3.29296875 11.16796875 C-3.30845261 10.39599655 -3.32393646 9.62402435 -3.33988953 8.82865906 C-3.34158031 3.45230967 -3.34158031 3.45230967 -1.48168945 0.98950195 C-0.99273193 0.66296631 -0.50377441 0.33643066 0 0 Z " fill="#217AC6" transform="translate(75,71)"/>
<path d="M0 0 C4.95 0 9.9 0 15 0 C16.21075326 3.73056882 17.41991973 7.4616044 18.62548828 11.19384766 C19.23175043 13.0685676 19.840447 14.94249974 20.44921875 16.81640625 C23.14431964 25.16680081 25.64390578 33.54893375 28 42 C29.2301429 38.16697928 30.45900213 34.33354826 31.6875 30.5 C32.05109619 29.36626953 32.41469238 28.23253906 32.78930664 27.06445312 C34.41532998 21.98632924 36.03698783 16.90752201 37.609375 11.8125 C37.83794189 11.07193359 38.06650879 10.33136719 38.30200195 9.56835938 C38.90082374 7.61937045 39.49547051 5.66910017 40.08984375 3.71875 C41 1 41 1 42 0 C44.53049402 -0.07313567 47.03304837 -0.09247527 49.5625 -0.0625 C50.62887695 -0.05573242 50.62887695 -0.05573242 51.71679688 -0.04882812 C53.47790013 -0.03700864 55.23896036 -0.01907263 57 0 C55.63125844 6.95776959 53.5466871 13.38603107 51 20 C49.8515625 18.453125 49.8515625 18.453125 49 16 C49.66831503 13.43134571 50.39301656 11.19008007 51.375 8.75 C51.6225 8.1003125 51.87 7.450625 52.125 6.78125 C52.73639014 5.18222963 53.36640959 3.59035444 54 2 C50.37 2 46.74 2 43 2 C40.68160859 9.09646936 40.68160859 9.09646936 39.5625 16.4375 C39.17249537 21.11755553 37.61022838 25.11328766 35.921875 29.46875 C34.89500853 32.28828167 34.32240603 35.01774424 34 38 C33.34 38 32.68 38 32 38 C32 38.99 32 39.98 32 41 C31.34 41 30.68 41 30 41 C29.67 43.31 29.34 45.62 29 48 C28.34 48 27.68 48 27 48 C25.30812835 43.40777696 24.36759961 38.88325126 23.5625 34.07421875 C23.376875 33.38972656 23.19125 32.70523438 23 32 C22.34 31.67 21.68 31.34 21 31 C20.26584214 28.31006938 19.6331762 25.66253613 19.0625 22.9375 C17.81397657 17.04426387 16.21549445 11.60815899 14 6 C13.67 5.01 13.34 4.02 13 3 C9.37 3 5.74 3 2 3 C2.350625 3.9075 2.70125 4.815 3.0625 5.75 C4.00170571 9.00591313 3.95514676 9.92749994 3 13 C2.49242138 11.58603098 1.99425075 10.16868271 1.5 8.75 C1.08234375 7.56664063 1.08234375 7.56664063 0.65625 6.359375 C0 4 0 4 0 0 Z " fill="#194C7C" transform="translate(180,116)"/>
<path d="M0 0 C4.95 0 9.9 0 15 0 C13.87766521 5.61167394 13.87766521 5.61167394 11.2421875 8.84765625 C10.69949219 9.53537109 10.15679687 10.22308594 9.59765625 10.93164062 C8.44421887 12.3583982 7.28794014 13.78286316 6.12890625 15.20507812 C5.58878906 15.89150391 5.04867188 16.57792969 4.4921875 17.28515625 C3.73977783 18.21146851 3.73977783 18.21146851 2.97216797 19.15649414 C1.8028453 20.95991742 1.8028453 20.95991742 2.21533203 23.06030273 C3.3215208 25.79479863 5.08767679 27.77923756 7 30 C6.67 30.66 6.34 31.32 6 32 C2.36905358 29.35039045 0.10148204 26.98175544 -2 23 C-1.38125 21.9275 -0.7625 20.855 -0.125 19.75 C0.23722656 19.10933594 0.59945313 18.46867187 0.97265625 17.80859375 C1.73504776 16.46643683 2.51833684 15.13610526 3.3125 13.8125 C4.18227814 11.51944855 3.81129179 10.27161701 3 8 C2.62875 8.45375 2.2575 8.9075 1.875 9.375 C0 11 0 11 -3.125 12 C-4.548125 12.495 -4.548125 12.495 -6 13 C-6.33 13.99 -6.66 14.98 -7 16 C-10.35111834 13.76592111 -11.81553956 12.73784176 -12.8125 8.75 C-12.874375 7.8425 -12.93625 6.935 -13 6 C-9.125 9.75 -9.125 9.75 -8 12 C-6.85252535 10.37615858 -5.7070709 8.75088944 -4.5625 7.125 C-3.92441406 6.22007812 -3.28632813 5.31515625 -2.62890625 4.3828125 C-1.00481862 2.12261419 -1.00481862 2.12261419 0 0 Z " fill="#024080" transform="translate(310,130)"/>
<path d="M0 0 C0.66 0.33 1.32 0.66 2 1 C1.67 4.96 1.34 8.92 1 13 C0.34 12.67 -0.32 12.34 -1 12 C-0.34 8.7 0.32 5.4 1 2 C-6.80066641 2.36414438 -6.80066641 2.36414438 -14 5 C-15.34410262 7.01735205 -15.34410262 7.01735205 -16 9 C-16.66 9 -17.32 9 -18 9 C-18.33 7.02 -18.66 5.04 -19 3 C-21.97 3 -24.94 3 -28 3 C-28 16.53 -28 30.06 -28 44 C-24.37 44 -20.74 44 -17 44 C-17 36.74 -17 29.48 -17 22 C-16.34 22.33 -15.68 22.66 -15 23 C-15.33 30.26 -15.66 37.52 -16 45 C-20.62 45 -25.24 45 -30 45 C-30 30.48 -30 15.96 -30 1 C-25.38 1 -20.76 1 -16 1 C-15.67 1.99 -15.34 2.98 -15 4 C-14.401875 3.525625 -13.80375 3.05125 -13.1875 2.5625 C-8.86292957 -0.52647888 -5.10427671 -0.16204053 0 0 Z " fill="#1F4B77" transform="translate(389,129)"/>
<path d="M0 0 C2.42869909 3.64304864 2.25675675 6.30722339 2.1953125 10.51171875 C2.1924826 11.23994339 2.18965271 11.96816803 2.18673706 12.71846008 C2.17555257 15.04164137 2.15045166 17.36443547 2.125 19.6875 C2.11496794 21.2636663 2.10584248 22.83983865 2.09765625 24.41601562 C2.07561896 28.27749267 2.04110141 32.13868071 2 36 C2.97348389 35.98952637 3.94696777 35.97905273 4.94995117 35.96826172 C8.57475075 35.93195794 12.19953436 35.9090619 15.82446289 35.89013672 C17.39089667 35.88010274 18.95731183 35.86647246 20.52368164 35.84912109 C22.78015753 35.82475775 25.03638494 35.81349084 27.29296875 35.8046875 C27.98899704 35.79436493 28.68502533 35.78404236 29.40214539 35.77340698 C33.37140917 35.77249891 36.54790406 35.96504007 40 38 C43.15114627 41.86123952 43.37538019 45.01858747 43.36328125 49.91015625 C43.36263672 51.22951172 43.36199219 52.54886719 43.36132812 53.90820312 C43.35302979 54.59019775 43.34473145 55.27219238 43.33618164 55.97485352 C43.31253063 58.0597994 43.31563552 60.14346905 43.32226562 62.22851562 C43.26236144 73.36524812 43.26236144 73.36524812 41 77 C40.34 77 39.68 77 39 77 C39.32234619 76.30777344 39.64469238 75.61554688 39.97680664 74.90234375 C41.89252279 69.46831044 41.4114539 63.70698894 41.4375 58 C41.47037109 56.72898438 41.50324219 55.45796875 41.53710938 54.1484375 C41.54419922 52.92382812 41.55128906 51.69921875 41.55859375 50.4375 C41.57204834 49.32246094 41.58550293 48.20742187 41.59936523 47.05859375 C40.77906674 42.87256542 39.45260966 41.47505675 36 39 C33.03005228 38.49424193 30.60335822 38.27723019 27.63671875 38.29296875 C26.93405884 38.27834595 26.23139893 38.26372314 25.50744629 38.24865723 C22.90114347 38.20155113 20.29421115 38.19700477 17.6875 38.1875 C8.9321875 38.0946875 8.9321875 38.0946875 0 38 C0 25.46 0 12.92 0 0 Z " fill="#267DC5" transform="translate(113,74)"/>
<path d="M0 0 C1.55521173 0.00031721 3.11044535 0.0116478 4.66552734 0.03173828 C5.89316299 0.03598312 5.89316299 0.03598312 7.14559937 0.04031372 C9.76436877 0.05152546 12.38279848 0.07663149 15.00146484 0.10205078 C16.77489741 0.11207931 18.54833533 0.12120538 20.32177734 0.12939453 C24.6734711 0.151468 29.02491034 0.18600434 33.37646484 0.22705078 C33.04646484 0.88705078 32.71646484 1.54705078 32.37646484 2.22705078 C20.49646484 2.22705078 8.61646484 2.22705078 -3.62353516 2.22705078 C-3.54455447 12.86228579 -3.54455447 12.86228579 -3.44335938 23.49731445 C-3.43751393 24.8382129 -3.43241849 26.17911491 -3.42822266 27.52001953 C-3.41799072 28.20696899 -3.40775879 28.89391846 -3.3972168 29.60168457 C-3.39544614 34.50553019 -4.1326031 37.91205825 -6.77905273 42.02124023 C-9.70141395 43.93170245 -12.76353604 43.59393067 -16.13525391 43.52001953 C-16.86347855 43.51577469 -17.59170319 43.51152985 -18.34199524 43.50715637 C-20.66538643 43.49037812 -22.98790666 43.45272933 -25.31103516 43.41455078 C-26.88719449 43.39950276 -28.46336744 43.38581455 -30.03955078 43.37353516 C-33.90121393 43.34047763 -37.76222693 43.28870272 -41.62353516 43.22705078 C-41.62353516 42.89705078 -41.62353516 42.56705078 -41.62353516 42.22705078 C-31.06353516 41.89705078 -20.50353516 41.56705078 -9.62353516 41.22705078 C-6.95955709 35.89909465 -6.18307775 33.10142731 -6.18212891 27.49267578 C-6.16892105 26.77343933 -6.1557132 26.05420288 -6.1421051 25.31317139 C-6.10147178 23.03442368 -6.07959714 20.7560772 -6.06103516 18.47705078 C-6.0372429 16.18386195 -6.00918401 13.89105047 -5.96925354 11.5980835 C-5.94489908 10.17589514 -5.93003835 8.75350581 -5.92564392 7.33111572 C-5.84321712 2.1429946 -5.60798977 0.35139674 0 0 Z " fill="#2175BC" transform="translate(118.62353515625,150.77294921875)"/>
<path d="M0 0 C3.8727621 7.58922439 6.44836685 14.44968614 7 23 C7.66 23 8.32 23 9 23 C9.28875 23.9075 9.5775 24.815 9.875 25.75 C10.84485626 28.84543451 10.84485626 28.84543451 12.0625 30.9375 C13.39144402 33.86117685 13.58183112 36.83386419 14 40 C15.87900728 41.87900728 18.85823825 41.30277505 21.375 41.375 C22.53773438 41.42398438 23.70046875 41.47296875 24.8984375 41.5234375 C28.14936842 41.32930027 28.14936842 41.32930027 29.80859375 38.734375 C30.20175781 37.83203125 30.59492188 36.9296875 31 36 C31.31324219 35.29617187 31.62648437 34.59234375 31.94921875 33.8671875 C32.19285156 33.20976562 32.43648437 32.55234375 32.6875 31.875 C33.06455078 30.88113281 33.06455078 30.88113281 33.44921875 29.8671875 C34.14146334 27.84488387 34.14146334 27.84488387 34 25 C34.99 24.67 35.98 24.34 37 24 C37.185625 22.5459375 37.185625 22.5459375 37.375 21.0625 C37.58125 20.051875 37.7875 19.04125 38 18 C38.66 17.67 39.32 17.34 40 17 C34.30245232 39.69754768 34.30245232 39.69754768 31 43 C29.65732587 43.08631874 28.31025678 43.10706473 26.96484375 43.09765625 C26.15595703 43.09443359 25.34707031 43.09121094 24.51367188 43.08789062 C23.66353516 43.07951172 22.81339844 43.07113281 21.9375 43.0625 C21.08349609 43.05798828 20.22949219 43.05347656 19.34960938 43.04882812 C17.23304337 43.03700373 15.11651315 43.01906769 13 43 C11.32282792 38.30606152 9.65065209 33.61038322 7.98291016 28.91308594 C7.41589239 27.31820729 6.8475561 25.72379672 6.27783203 24.12988281 C5.45511118 21.82741711 4.63728208 19.52326173 3.8203125 17.21875 C3.56814972 16.51633179 3.31598694 15.81391357 3.05618286 15.09020996 C1.41566918 10.44329204 0.03433516 5.82203205 -1 1 C-0.67 0.67 -0.34 0.34 0 0 Z " fill="#1C4E7D" transform="translate(186,131)"/>
<path d="M0 0 C2.43868168 -0.1079859 4.87259133 -0.18726589 7.3125 -0.25 C8.00279297 -0.28351563 8.69308594 -0.31703125 9.40429688 -0.3515625 C11.42578125 -0.390625 11.42578125 -0.390625 15 0 C16.98046875 2.015625 16.98046875 2.015625 18 4 C17.67 4.66 17.34 5.32 17 6 C15.5 4.625 15.5 4.625 14 3 C14 2.34 14 1.68 14 1 C10.04 1 6.08 1 2 1 C5.95775906 7.51438882 5.95775906 7.51438882 11.3125 12.8125 C14.05753454 15.04683044 14.52331184 15.66318285 15 19 C15.66 19.33 16.32 19.66 17 20 C16.39568455 23.60139343 14.92376219 25.63921775 12.625 28.4375 C10.59993023 30.94709567 8.83427298 33.28002152 7.1875 36.0625 C6.795625 36.701875 6.40375 37.34125 6 38 C5.34 38 4.68 38 4 38 C3.01 40.475 3.01 40.475 2 43 C2.99 43.33 3.98 43.66 5 44 C3.02 44 1.04 44 -1 44 C0.83255096 38.03545517 5.06118367 33.56722831 8.91992188 28.79492188 C9.45552734 28.10849609 9.99113281 27.42207031 10.54296875 26.71484375 C11.03821045 26.09730225 11.53345215 25.47976074 12.04370117 24.84350586 C13.18420427 23.04839702 13.18420427 23.04839702 12.82373047 21.00439453 C11.89950382 18.75546129 10.7836408 17.12314526 9.27734375 15.21484375 C8.73916016 14.51939453 8.20097656 13.82394531 7.64648438 13.10742188 C6.50376725 11.65649762 5.36053491 10.205979 4.21679688 8.75585938 C3.67990234 8.06169922 3.14300781 7.36753906 2.58984375 6.65234375 C2.09347412 6.02320068 1.59710449 5.39405762 1.08569336 4.74584961 C0 3 0 3 0 0 Z " fill="#144A82" transform="translate(279,130)"/>
<path d="M0 0 C0 3.63 0 7.26 0 11 C1.134375 10.979375 2.26875 10.95875 3.4375 10.9375 C7 11 7 11 8 12 C8.07179964 13.51928038 8.08392007 15.04167482 8.0625 16.5625 C8.05347656 17.38878906 8.04445313 18.21507812 8.03515625 19.06640625 C8.02355469 19.70449219 8.01195312 20.34257812 8 21 C6.68 20.67 5.36 20.34 4 20 C4.99 20 5.98 20 7 20 C6.67 17.69 6.34 15.38 6 13 C3.36 13 0.72 13 -2 13 C-2.80688405 9.05523353 -3.00000429 7.00001715 -2 3 C-5.3 3.33 -8.6 3.66 -12 4 C-11.67 6.97 -11.34 9.94 -11 13 C-13.6666419 14.33332095 -15.16680303 13.67102033 -18 13 C-18 14.98 -18 16.96 -18 19 C-16.68 19.66 -15.36 20.32 -14 21 C-15.98 21 -17.96 21 -20 21 C-20 17.7 -20 14.4 -20 11 C-18.02 11 -16.04 11 -14 11 C-14 8.36 -14 5.72 -14 3 C-12.4188708 2.49307308 -10.83498617 1.99473557 -9.25 1.5 C-8.36828125 1.2215625 -7.4865625 0.943125 -6.578125 0.65625 C-4 0 -4 0 0 0 Z " fill="#174A7E" transform="translate(346,119)"/>
<path d="M0 0 C4.91153029 5.14771772 5.54459035 10.33737275 5.43945312 17.234375 C5.37661133 18.85085937 5.37661133 18.85085937 5.3125 20.5 C5.28994141 21.60859375 5.26738281 22.7171875 5.24414062 23.859375 C5.18562829 26.57434753 5.10370491 29.2864413 5 32 C4.01 31.505 4.01 31.505 3 31 C2.98541748 30.40050537 2.97083496 29.80101074 2.95581055 29.18334961 C2.88076179 26.43412545 2.78429248 23.68604111 2.6875 20.9375 C2.65366211 19.52307617 2.65366211 19.52307617 2.61914062 18.08007812 C2.40060676 12.37833099 1.85359904 7.99549285 -1 3 C-1.99 2.67 -2.98 2.34 -4 2 C-4.33 1.34 -4.66 0.68 -5 0 C-11.27 0 -17.54 0 -24 0 C-23.67 1.65 -23.34 3.3 -23 5 C-23.99 4.67 -24.98 4.34 -26 4 C-26 3.34 -26 2.68 -26 2 C-27.32 2.99 -28.64 3.98 -30 5 C-30.66 4.67 -31.32 4.34 -32 4 C-23.61485056 -3.77160192 -10.16778098 -6.42789211 0 0 Z " fill="#1C4A79" transform="translate(426,132)"/>
<path d="M0 0 C4.95 0 9.9 0 15 0 C13.87766521 5.61167394 13.87766521 5.61167394 11.2421875 8.84765625 C10.69949219 9.53537109 10.15679687 10.22308594 9.59765625 10.93164062 C8.44421887 12.3583982 7.28794014 13.78286316 6.12890625 15.20507812 C5.58878906 15.89150391 5.04867188 16.57792969 4.4921875 17.28515625 C3.99058105 17.90269775 3.48897461 18.52023926 2.97216797 19.15649414 C1.8028453 20.95991742 1.8028453 20.95991742 2.21533203 23.06030273 C3.3215208 25.79479863 5.08767679 27.77923756 7 30 C6.67 30.66 6.34 31.32 6 32 C2.36905358 29.35039045 0.10148204 26.98175544 -2 23 C-0.07119658 19.59244728 1.8276509 16.25852365 4 13 C4.66 13 5.32 13 6 13 C6 11.02 6 9.04 6 7 C6.66 7.33 7.32 7.66 8 8 C8.33 7.34 8.66 6.68 9 6 C9.66 6 10.32 6 11 6 C11.33 4.68 11.66 3.36 12 2 C8.37 2 4.74 2 1 2 C0.67 3.32 0.34 4.64 0 6 C-0.99 6.33 -1.98 6.66 -3 7 C-1.125 2.25 -1.125 2.25 0 0 Z " fill="#154A7D" transform="translate(310,130)"/>
<path d="M0 0 C0.99 0 1.98 0 3 0 C3 7.92 3 15.84 3 24 C5.64 24 8.28 24 11 24 C11 27.3 11 30.6 11 34 C5.39 34 -0.22 34 -6 34 C-6 33.67 -6 33.34 -6 33 C-0.72 33 4.56 33 10 33 C10 30.36 10 27.72 10 25 C7.03 25.33 4.06 25.66 1 26 C-0.30475618 23.39048764 -0.11301572 21.47298715 -0.09765625 18.5546875 C-0.09443359 17.47832031 -0.09121094 16.40195313 -0.08789062 15.29296875 C-0.07951172 14.16503906 -0.07113281 13.03710938 -0.0625 11.875 C-0.05798828 10.73933594 -0.05347656 9.60367188 -0.04882812 8.43359375 C-0.03701615 5.62234362 -0.02054507 2.8111977 0 0 Z " fill="#134A7F" transform="translate(343,140)"/>
<path d="M0 0 C1.38294718 0.01329757 2.76582404 0.03715018 4.1484375 0.0703125 C4.85484375 0.07933594 5.56125 0.08835938 6.2890625 0.09765625 C8.03399848 0.12123647 9.77876045 0.15710789 11.5234375 0.1953125 C10.20222922 3.12761443 8.77705553 5.18196149 6.484375 7.4296875 C5.61425781 8.29013672 5.61425781 8.29013672 4.7265625 9.16796875 C4.12328125 9.75449219 3.52 10.34101563 2.8984375 10.9453125 C2.28742187 11.54730469 1.67640625 12.14929688 1.046875 12.76953125 C-0.45644874 14.24936555 -1.96591106 15.72295926 -3.4765625 17.1953125 C-3.8065625 16.2053125 -4.1365625 15.2153125 -4.4765625 14.1953125 C-3.4865625 13.8653125 -2.4965625 13.5353125 -1.4765625 13.1953125 C-0.26774154 11.19514784 -0.26774154 11.19514784 0.5234375 9.1953125 C1.1834375 9.1953125 1.8434375 9.1953125 2.5234375 9.1953125 C2.7915625 8.5559375 3.0596875 7.9165625 3.3359375 7.2578125 C4.5234375 5.1953125 4.5234375 5.1953125 7.5234375 4.1953125 C7.5234375 3.5353125 7.5234375 2.8753125 7.5234375 2.1953125 C6.6159375 2.3809375 5.7084375 2.5665625 4.7734375 2.7578125 C1.84029426 3.15265871 0.2589718 3.14222822 -2.4765625 2.1953125 C-2.8065625 2.8553125 -3.1365625 3.5153125 -3.4765625 4.1953125 C-5.13407194 5.60632054 -6.82668482 6.97642116 -8.5390625 8.3203125 C-9.45816406 9.04476562 -10.37726563 9.76921875 -11.32421875 10.515625 C-12.03449219 11.06992188 -12.74476563 11.62421875 -13.4765625 12.1953125 C-13.4765625 9.1953125 -13.4765625 9.1953125 -11.796875 7.44140625 C-11.07242187 6.84457031 -10.34796875 6.24773437 -9.6015625 5.6328125 C-8.52261719 4.73369141 -8.52261719 4.73369141 -7.421875 3.81640625 C-6.77992188 3.28144531 -6.13796875 2.74648437 -5.4765625 2.1953125 C-3.4765625 0.1953125 -3.4765625 0.1953125 0 0 Z " fill="#184C7A" transform="translate(517.4765625,129.8046875)"/>
<path d="M0 0 C3 2 3 2 3.6875 5.125 C3.790625 6.07375 3.89375 7.0225 4 8 C4.99 8.33 5.98 8.66 7 9 C7.33 9.99 7.66 10.98 8 12 C7.34 12.66 6.68 13.32 6 14 C4.02 10.7 2.04 7.4 0 4 C-4.26712664 6.50149694 -4.26712664 6.50149694 -4.609375 10.13671875 C-4.67898438 11.89435547 -4.67898438 11.89435547 -4.75 13.6875 C-4.8325 15.770625 -4.915 17.85375 -5 20 C-9.62 20 -14.24 20 -19 20 C-19 16.7 -19 13.4 -19 10 C-18.67 10 -18.34 10 -18 10 C-17.67 12.64 -17.34 15.28 -17 18 C-14.03 18 -11.06 18 -8 18 C-7.34 13.71 -6.68 9.42 -6 5 C-5.34 5 -4.68 5 -4 5 C-3.71125 4.360625 -3.4225 3.72125 -3.125 3.0625 C-2 1 -2 1 0 0 Z " fill="#1A4877" transform="translate(504,154)"/>
<path d="M0 0 C1.12563103 0.00212242 1.12563103 0.00212242 2.27400208 0.00428772 C4.66838585 0.00988065 7.06267578 0.02243181 9.45703125 0.03515625 C11.08137886 0.04017217 12.70572793 0.04473491 14.33007812 0.04882812 C18.30993194 0.05984777 22.28971569 0.07710752 26.26953125 0.09765625 C26.26953125 0.42765625 26.26953125 0.75765625 26.26953125 1.09765625 C9.93453125 1.59265625 9.93453125 1.59265625 -6.73046875 2.09765625 C-7.39046875 3.41765625 -8.05046875 4.73765625 -8.73046875 6.09765625 C-10.05046875 6.09765625 -11.37046875 6.09765625 -12.73046875 6.09765625 C-12.73046875 15.33765625 -12.73046875 24.57765625 -12.73046875 34.09765625 C-13.06046875 34.09765625 -13.39046875 34.09765625 -13.73046875 34.09765625 C-13.80466009 29.88016406 -13.85908915 25.66301814 -13.89526367 21.44506836 C-13.91034464 20.01043073 -13.93081255 18.57583917 -13.95678711 17.14135742 C-13.99320312 15.07849766 -14.01020118 13.01624767 -14.0234375 10.953125 C-14.03914795 9.71199951 -14.0548584 8.47087402 -14.07104492 7.19213867 C-13.73046875 4.09765625 -13.73046875 4.09765625 -12.3996582 2.23168945 C-8.52411036 -0.40132499 -4.48100587 -0.03175909 0 0 Z " fill="#2077C5" transform="translate(45.73046875,109.90234375)"/>
<path d="M0 0 C-1.73636719 0.05607422 -1.73636719 0.05607422 -3.5078125 0.11328125 C-5.04690561 0.17897425 -6.5859667 0.24542042 -8.125 0.3125 C-9.26582031 0.34633789 -9.26582031 0.34633789 -10.4296875 0.38085938 C-16.8655925 0.68601004 -21.46267514 2.2358089 -26 7 C-26.66 7 -27.32 7 -28 7 C-28 8.65 -28 10.3 -28 12 C-26.37509046 12.02698189 -24.75005367 12.04638757 -23.125 12.0625 C-21.76761719 12.07990234 -21.76761719 12.07990234 -20.3828125 12.09765625 C-17.9831415 12.16249257 -17.9831415 12.16249257 -16 11 C-16 11.99 -16 12.98 -16 14 C-20.29 13.67 -24.58 13.34 -29 13 C-30 9 -30 9 -28.875 6.5 C-22.5620281 -1.91729587 -9.42945185 -5.5649224 0 0 Z " fill="#1C4977" transform="translate(264,131)"/>
<path d="M0 0 C1 2 1 2 0.39501953 4.32250977 C0.06099121 5.26924561 -0.27303711 6.21598145 -0.6171875 7.19140625 C-0.97683594 8.21814453 -1.33648437 9.24488281 -1.70703125 10.30273438 C-2.09246094 11.37845703 -2.47789062 12.45417969 -2.875 13.5625 C-3.25269531 14.64208984 -3.63039062 15.72167969 -4.01953125 16.83398438 C-6.85167638 24.85167638 -6.85167638 24.85167638 -8 26 C-10.35313555 26.07271741 -12.70833668 26.08370868 -15.0625 26.0625 C-16.35285156 26.05347656 -17.64320313 26.04445312 -18.97265625 26.03515625 C-19.97167969 26.02355469 -20.97070312 26.01195312 -22 26 C-22 25.67 -22 25.34 -22 25 C-21.24074219 24.98582031 -20.48148438 24.97164062 -19.69921875 24.95703125 C-13.75249046 24.92482238 -13.75249046 24.92482238 -9 21.9375 C-8.67 20.968125 -8.34 19.99875 -8 19 C-7.59201172 18.00806641 -7.59201172 18.00806641 -7.17578125 16.99609375 C-5.87618906 13.8029781 -5 11.48474728 -5 8 C-4.01 7.67 -3.02 7.34 -2 7 C-1.855625 6.030625 -1.71125 5.06125 -1.5625 4.0625 C-1 1 -1 1 0 0 Z " fill="#144375" transform="translate(225,148)"/>
<path d="M0 0 C1.3551594 2.7103188 0.39658342 4.10526284 -0.4453125 6.87890625 C-2.34189321 14.13132404 -1.96787507 19.86645287 0 27 C-0.4375 29.2265625 -0.4375 29.2265625 -1 31 C-4.72767615 23.86879345 -6.33438927 17.50218951 -4.3984375 9.51953125 C-3.2434142 5.94362579 -2.0994401 3.14916014 0 0 Z " fill="#14497A" transform="translate(442,136)"/>
<path d="M0 0 C0.33 0 0.66 0 1 0 C1 12.87 1 25.74 1 39 C0.67 39 0.34 39 0 39 C-2.76294935 11.55988855 -2.76294935 11.55988855 -1 1 C-0.67 0.67 -0.34 0.34 0 0 Z " fill="#0D4A84" transform="translate(487,115)"/>
<path d="M0 0 C2.5 2.6875 2.5 2.6875 4 5 C-0.75 3.125 -0.75 3.125 -3 2 C-3 1.34 -3 0.68 -3 0 C-11.53451879 -0.4096569 -18.34309866 -0.65845845 -26.14453125 3.22265625 C-26.75683594 3.47917969 -27.36914062 3.73570312 -28 4 C-28.66 3.67 -29.32 3.34 -30 3 C-28.75443908 2.18071114 -27.50333365 1.36984814 -26.25 0.5625 C-25.20585937 -0.11619141 -25.20585937 -0.11619141 -24.140625 -0.80859375 C-16.98170366 -4.7930299 -6.9745519 -4.1140214 0 0 Z " fill="#1C4979" transform="translate(473,132)"/>
<path d="M0 0 C0 0.99 0 1.98 0 3 C-0.99 3.33 -1.98 3.66 -3 4 C-3.73323796 6.01508358 -3.73323796 6.01508358 -4 8 C-4.66 8 -5.32 8 -6 8 C-5.67 9.11375 -5.34 10.2275 -5 11.375 C-4 15 -4 15 -4 17 C-2.1247675 19.50031 -0.21013545 21.78986455 2 24 C-2.30614589 23.52153935 -4.24880549 22.34073619 -7 19 C-8.67967818 13.96096545 -8.87064828 8.94859377 -6.6875 4.0625 C-4.73541318 1.67661611 -3.22216115 0 0 0 Z " fill="#114E82" transform="translate(240,150)"/>
<path d="M0 0 C3.27864546 1.09288182 3.78134149 1.66172933 5.6875 4.375 C6.34298828 5.28378906 6.34298828 5.28378906 7.01171875 6.2109375 C8 8 8 8 8 11 C8.66 11 9.32 11 10 11 C10.99 12.485 10.99 12.485 12 14 C14.6556728 14.58348752 14.6556728 14.58348752 17.625 14.6875 C18.62789063 14.75324219 19.63078125 14.81898438 20.6640625 14.88671875 C21.43492187 14.92410156 22.20578125 14.96148437 23 15 C23 14.34 23 13.68 23 13 C23.99 13.33 24.98 13.66 26 14 C26 14.66 26 15.32 26 16 C14.96174562 17.4467615 14.96174562 17.4467615 10 16 C6.26529695 12.49102076 4.10087144 8.6440316 2 4 C1.01 4.66 0.02 5.32 -1 6 C-1 3 -1 3 0 0 Z " fill="#164B75" transform="translate(300,158)"/>
<path d="M0 0 C3.3 0 6.6 0 10 0 C11.50344635 3.40253648 12.21494973 5.23940866 11.1875 8.875 C8.68441866 11.30656473 8.3125986 11.28568329 5 11.25 C3.82630859 11.18039063 3.82630859 11.18039063 2.62890625 11.109375 C-1.93930688 10.91931561 -6.46041929 11.52482894 -11 12 C-7.9896755 8.9896755 -5.77096379 9.02180327 -1.546875 8.90234375 C0.33257812 8.91974609 0.33257812 8.91974609 2.25 8.9375 C4.14492187 8.95103516 4.14492187 8.95103516 6.078125 8.96484375 C7.04234375 8.97644531 8.0065625 8.98804688 9 9 C7.8175121 5.32703067 7.8175121 5.32703067 6 2 C2.91630113 0.94250443 2.91630113 0.94250443 0 1 C0 0.67 0 0.34 0 0 Z " fill="#15477C" transform="translate(251,138)"/>
<path d="M0 0 C1.85625 0.2784375 1.85625 0.2784375 3.75 0.5625 C6.76279577 0.94711223 9.10010827 1.0874594 12 0 C11.01 1.98 10.02 3.96 9 6 C4.71 5.67 0.42 5.34 -4 5 C-4.33 3.68 -4.66 2.36 -5 1 C-4.34 1 -3.68 1 -3 1 C-3 1.66 -3 2.32 -3 3 C-2.01 3 -1.02 3 0 3 C0 2.01 0 1.02 0 0 Z " fill="#063F7C" transform="translate(397,139)"/>
<path d="M0 0 C2.3125 0.1875 2.3125 0.1875 5 1 C8.05907348 4.93970896 8.37542732 7.99953182 8.36328125 12.91015625 C8.36263672 14.22951172 8.36199219 15.54886719 8.36132812 16.90820312 C8.35302979 17.59019775 8.34473145 18.27219238 8.33618164 18.97485352 C8.31253063 21.0597994 8.31563552 23.14346905 8.32226562 25.22851562 C8.26236144 36.36524812 8.26236144 36.36524812 6 40 C5.34 40 4.68 40 4 40 C4.32234619 39.30777344 4.64469238 38.61554688 4.97680664 37.90234375 C6.89252279 32.46831044 6.4114539 26.70698894 6.4375 21 C6.47037109 19.72898438 6.50324219 18.45796875 6.53710938 17.1484375 C6.7958992 10.88067228 6.7958992 10.88067228 4.89111328 5.08203125 C3.4296102 3.57017216 3.4296102 3.57017216 1 2 C0.67 1.34 0.34 0.68 0 0 Z " fill="#2A79B9" transform="translate(148,111)"/>
<path d="M0 0 C2.43868168 -0.1079859 4.87259133 -0.18726589 7.3125 -0.25 C8.00279297 -0.28351563 8.69308594 -0.31703125 9.40429688 -0.3515625 C11.42578125 -0.390625 11.42578125 -0.390625 15 0 C16.98046875 2.015625 16.98046875 2.015625 18 4 C17.67 4.66 17.34 5.32 17 6 C15.5 4.625 15.5 4.625 14 3 C14 2.34 14 1.68 14 1 C10.04 1 6.08 1 2 1 C5.77572611 7.02185575 5.77572611 7.02185575 10.4375 12.3125 C10.953125 12.869375 11.46875 13.42625 12 14 C11.59765625 16.10546875 11.59765625 16.10546875 11 18 C9.34648668 15.75530315 7.70214519 13.50479175 6.0625 11.25 C5.59392578 10.61578125 5.12535156 9.9815625 4.64257812 9.328125 C3.9706543 8.4 3.9706543 8.4 3.28515625 7.453125 C2.87144775 6.88754883 2.45773926 6.32197266 2.03149414 5.73925781 C0.90789893 3.84470343 0.4304947 2.15041371 0 0 Z " fill="#234B77" transform="translate(279,130)"/>
<path d="M0 0 C4.15777436 3.82485649 7.01281706 7.83402861 9.875 12.6875 C10.29007813 13.36361328 10.70515625 14.03972656 11.1328125 14.73632812 C12.15699243 16.45182951 13.08718238 18.22273988 14 20 C13.67 20.66 13.34 21.32 13 22 C11.5 20.625 11.5 20.625 10 19 C10 18.34 10 17.68 10 17 C9.34 17 8.68 17 8 17 C7.67 15.02 7.34 13.04 7 11 C6.34 11 5.68 11 5 11 C5 10.34 5 9.68 5 9 C4.01 8.67 3.02 8.34 2 8 C2.33 7.34 2.66 6.68 3 6 C2.34 6 1.68 6 1 6 C0.67 4.02 0.34 2.04 0 0 Z " fill="#154C7F" transform="translate(513,148)"/>
<path d="M0 0 C0.33 0 0.66 0 1 0 C1.01981934 0.76554199 1.03963867 1.53108398 1.06005859 2.31982422 C1.15619205 5.83852104 1.26550916 9.35669448 1.375 12.875 C1.4059375 14.07898438 1.436875 15.28296875 1.46875 16.5234375 C1.66069899 28.0742694 1.66069899 28.0742694 5 39 C1.125 37.25 1.125 37.25 0 35 C-0.08667255 32.37372867 -0.11560135 29.77437517 -0.09765625 27.1484375 C-0.0962413 26.37440582 -0.09482635 25.60037415 -0.09336853 24.80288696 C-0.08776403 22.32688558 -0.07521083 19.85097412 -0.0625 17.375 C-0.05748558 15.69791797 -0.05292257 14.02083453 -0.04882812 12.34375 C-0.03779315 8.22913194 -0.02052554 4.11458122 0 0 Z " fill="#297CC4" transform="translate(72,154)"/>
<path d="M0 0 C0.66 0.66 1.32 1.32 2 2 C1.2575 3.1446875 1.2575 3.1446875 0.5 4.3125 C-1.92931541 10.28456704 -1.8021359 16.8087912 0 23 C-0.66 23 -1.32 23 -2 23 C-2 22.34 -2 21.68 -2 21 C-2.66 21 -3.32 21 -4 21 C-4.22354607 19.10590022 -4.42819951 17.2095652 -4.625 15.3125 C-4.74101562 14.25675781 -4.85703125 13.20101562 -4.9765625 12.11328125 C-5.0010326 8.86283654 -4.40852563 6.89769204 -3 4 C-2.34 4 -1.68 4 -1 4 C-0.67 2.68 -0.34 1.36 0 0 Z " fill="#134A7A" transform="translate(454,139)"/>
<path d="M0 0 C1 2 1 2 0.3984375 3.875 C-2.35539488 9.59288098 -2.35539488 9.59288098 -5.375 11.5 C-8.31079327 12.05919872 -11.01819359 12.13868867 -14 12 C-14 11.01 -14 10.02 -14 9 C-13.2575 9.20625 -12.515 9.4125 -11.75 9.625 C-9.09479328 10.14213586 -9.09479328 10.14213586 -6.875 9.5625 C-3.8885913 7.07382609 -3.11710728 3.6390616 -2 0 C-4.64 0 -7.28 0 -10 0 C-10 -0.33 -10 -0.66 -10 -1 C-5.96934293 -1.91605842 -3.484385 -2.45197463 0 0 Z " fill="#174776" transform="translate(262,155)"/>
<path d="M0 0 C0.721875 0.33 1.44375 0.66 2.1875 1 C5.01697427 2.00603529 7.02895466 2.16977402 10 2 C7.29345977 4.82956479 6.0113025 5.96750313 1.9609375 6.09765625 C0.18589844 6.08025391 0.18589844 6.08025391 -1.625 6.0625 C-2.81351563 6.05347656 -4.00203125 6.04445312 -5.2265625 6.03515625 C-6.14179688 6.02355469 -7.05703125 6.01195312 -8 6 C-6 4 -6 4 -2.875 3.875 C-1.92625 3.91625 -0.9775 3.9575 0 4 C0 2.68 0 1.36 0 0 Z " fill="#104271" transform="translate(250,169)"/>
<path d="M0 0 C0.66 0 1.32 0 2 0 C2.33 0.66 2.66 1.32 3 2 C3.99 2.33 4.98 2.66 6 3 C6 6.3 6 9.6 6 13 C2.04 13 -1.92 13 -6 13 C-6 12.67 -6 12.34 -6 12 C-2.7 12 0.6 12 4 12 C4 9.69 4 7.38 4 5 C3.01 5 2.02 5 1 5 C0.67 3.35 0.34 1.7 0 0 Z " fill="#194A7C" transform="translate(271,161)"/>
<path d="M0 0 C3.875 3.75 3.875 3.75 5 6 C5.99 4.68 6.98 3.36 8 2 C8.99 2.33 9.98 2.66 11 3 C10.34 4.32 9.68 5.64 9 7 C8.34 7 7.68 7 7 7 C6.67 7.99 6.34 8.98 6 10 C2.64888166 7.76592111 1.18446044 6.73784176 0.1875 2.75 C0.125625 1.8425 0.06375 0.935 0 0 Z " fill="#16497D" transform="translate(297,136)"/>
<path d="M0 0 C0.61328125 1.87109375 0.61328125 1.87109375 1 4 C-0.8125 6.0625 -0.8125 6.0625 -3 8 C-4.93798263 10.77260299 -4.93798263 10.77260299 -6 13 C-5.01 13.33 -4.02 13.66 -3 14 C-4.98 14 -6.96 14 -9 14 C-7.65070536 10.16336928 -5.92248975 7.34827431 -3.375 4.1875 C-2.42753906 3.00220703 -2.42753906 3.00220703 -1.4609375 1.79296875 C-0.97882813 1.20128906 -0.49671875 0.60960937 0 0 Z " fill="#174675" transform="translate(287,160)"/>
<path d="M0 0 C3.96 0 7.92 0 12 0 C10 1 8 2 6 3 C6 5.42797311 6.50085685 7.62907005 7 10 C3.33813338 6.62722811 1.91094879 4.77737198 0 0 Z " fill="#094889" transform="translate(281,131)"/>
<path d="M0 0 C0.99 0.33 1.98 0.66 3 1 C2.01 2.485 2.01 2.485 1 4 C1.30840599 6.15274948 1.30840599 6.15274948 2 8 C4.31 8.33 6.62 8.66 9 9 C9 9.66 9 10.32 9 11 C2.375 11.125 2.375 11.125 -1 10 C-2.35439668 7.29120665 -2.06501451 4.99066732 -2 2 C-1.34 2 -0.68 2 0 2 C0 1.34 0 0.68 0 0 Z " fill="#134577" transform="translate(404,156)"/>
<path d="M0 0 C0.66 0 1.32 0 2 0 C2 5.94 2 11.88 2 18 C1.34 17.67 0.68 17.34 0 17 C-1.43377278 11.30231165 -0.93672227 5.7244139 0 0 Z " fill="#104B83" transform="translate(486,155)"/>
<path d="M0 0 C3.77693404 0.94423351 4.9550033 1.93919364 7.3125 5.125 C9.43073406 9.16580795 9.31526827 12.50742717 9 17 C7.26014254 13.76883615 6.13757142 10.48381248 5 7 C4.34588315 5.32836805 3.68346682 3.65984798 3 2 C2.01 2 1.02 2 0 2 C0 1.34 0 0.68 0 0 Z " fill="#1E4977" transform="translate(264,131)"/>
<path d="M0 0 C0.66 0 1.32 0 2 0 C1.46744565 4.52671196 -0.21559872 7.4200555 -3 11 C-5.25 12.375 -5.25 12.375 -7 13 C-7.33 12.34 -7.66 11.68 -8 11 C-7.01 11 -6.02 11 -5 11 C-3.92474806 8.34771188 -2.90543849 5.71631546 -2 3 C-1.34 3 -0.68 3 0 3 C0 2.01 0 1.02 0 0 Z " fill="#1B4873" transform="translate(479,159)"/>
<path d="M0 0 C2.475 0.495 2.475 0.495 5 1 C5 4.63 5 8.26 5 12 C4.01 12.495 4.01 12.495 3 13 C2.01 8.71 1.02 4.42 0 0 Z " fill="#084887" transform="translate(181,118)"/>
<path d="M0 0 C1.32 0.33 2.64 0.66 4 1 C4 2.32 4 3.64 4 5 C7.96 5 11.92 5 16 5 C16.33 4.01 16.66 3.02 17 2 C17.33 3.32 17.66 4.64 18 6 C13.05 6 8.1 6 3 6 C2.01 4.02 1.02 2.04 0 0 Z " fill="#1B4872" transform="translate(511,168)"/>
<path d="M0 0 C3.3 0 6.6 0 10 0 C10.33 0.66 10.66 1.32 11 2 C12.65 2 14.3 2 16 2 C15.01 2.495 15.01 2.495 14 3 C12.86649466 5.01669827 12.86649466 5.01669827 12 7 C11.34 7 10.68 7 10 7 C9.67 5.02 9.34 3.04 9 1 C6.03 1 3.06 1 0 1 C0 0.67 0 0.34 0 0 Z " fill="#104C8A" transform="translate(361,131)"/>
<path d="M0 0 C1.51706494 3.03412988 0.28825065 4.90636849 -0.75 8.0625 C-1.09546875 9.14660156 -1.4409375 10.23070312 -1.796875 11.34765625 C-2.19390625 12.22292969 -2.5909375 13.09820312 -3 14 C-3.99 14.33 -4.98 14.66 -6 15 C-5.835 14.401875 -5.67 13.80375 -5.5 13.1875 C-4.8885876 10.88655664 -4.8885876 10.88655664 -5 8 C-4.01 7.67 -3.02 7.34 -2 7 C-1.855625 6.030625 -1.71125 5.06125 -1.5625 4.0625 C-1 1 -1 1 0 0 Z " fill="#18497D" transform="translate(225,148)"/>
<path d="M0 0 C2.52259061 1.97420135 2.9929808 2.96745642 3.6875 6.1875 C3.790625 7.115625 3.89375 8.04375 4 9 C1.69 9.33 -0.62 9.66 -3 10 C-3 9.34 -3 8.68 -3 8 C-1.68 8 -0.36 8 1 8 C0.67 5.36 0.34 2.72 0 0 Z " fill="#174877" transform="translate(477,137)"/>
<path d="M0 0 C0.66 0 1.32 0 2 0 C2 0.66 2 1.32 2 2 C5.96 2.33 9.92 2.66 14 3 C14 3.66 14 4.32 14 5 C9.71 4.67 5.42 4.34 1 4 C0.67 2.68 0.34 1.36 0 0 Z " fill="#16436F" transform="translate(392,140)"/>
<path d="M0 0 C3.3 0.33 6.6 0.66 10 1 C10 1.33 10 1.66 10 2 C6.97265625 2.24414062 6.97265625 2.24414062 3.9453125 2.48828125 C1.60480784 2.87393036 1.60480784 2.87393036 0 6 C-0.66 6 -1.32 6 -2 6 C-1.34 4.02 -0.68 2.04 0 0 Z " fill="#1A4A79" transform="translate(468,157)"/>
<path d="M0 0 C0.33 0.99 0.66 1.98 1 3 C-1.64 5.64 -4.28 8.28 -7 11 C-7.33 10.01 -7.66 9.02 -8 8 C-7.01 7.67 -6.02 7.34 -5 7 C-3.79117904 4.99983534 -3.79117904 4.99983534 -3 3 C-2.34 3 -1.68 3 -1 3 C-0.67 2.01 -0.34 1.02 0 0 Z " fill="#134A7C" transform="translate(521,136)"/>
<path d="M0 0 C4.3124594 1.59720719 6.42143673 4.31633819 9 8 C8.63671875 10.1953125 8.63671875 10.1953125 8 12 C6.66382103 10.18959679 5.33112616 8.3766216 4 6.5625 C3.2575 5.55316406 2.515 4.54382813 1.75 3.50390625 C0 1 0 1 0 0 Z " fill="#174A73" transform="translate(282,136)"/>
<path d="M0 0 C1.65322266 0.01740234 1.65322266 0.01740234 3.33984375 0.03515625 C4.99693359 0.04869141 4.99693359 0.04869141 6.6875 0.0625 C7.54214844 0.07410156 8.39679688 0.08570313 9.27734375 0.09765625 C9.27734375 0.42765625 9.27734375 0.75765625 9.27734375 1.09765625 C5.64734375 1.09765625 2.01734375 1.09765625 -1.72265625 1.09765625 C-2.05265625 2.41765625 -2.38265625 3.73765625 -2.72265625 5.09765625 C-3.71265625 5.42765625 -4.70265625 5.75765625 -5.72265625 6.09765625 C-3.42464819 0.1228353 -3.42464819 0.1228353 0 0 Z " fill="#154C84" transform="translate(312.72265625,130.90234375)"/>
<path d="M0 0 C0 0.99 0 1.98 0 3 C1.32 3.33 2.64 3.66 4 4 C1.125 4.125 1.125 4.125 -2 4 C-2.66 3.34 -3.32 2.68 -4 2 C-4.99 2.33 -5.98 2.66 -7 3 C-7 2.34 -7 1.68 -7 1 C-4.53721199 -0.231394 -2.7204945 -0.07159196 0 0 Z " fill="#114379" transform="translate(423,169)"/>
<path d="M0 0 C0.598125 0.20625 1.19625 0.4125 1.8125 0.625 C1.173125 0.83125 0.53375 1.0375 -0.125 1.25 C-2.53675077 2.52038209 -2.53675077 2.52038209 -2.9375 5.75 C-3.02 6.69875 -3.1025 7.6475 -3.1875 8.625 C-4.1775 8.295 -5.1675 7.965 -6.1875 7.625 C-5.875 4.75 -5.875 4.75 -5.1875 1.625 C-2.1875 -0.375 -2.1875 -0.375 0 0 Z " fill="#1A487A" transform="translate(250.1875,155.375)"/>
<path d="M0 0 C0.78375 0.04125 1.5675 0.0825 2.375 0.125 C1.2303125 1.23875 1.2303125 1.23875 0.0625 2.375 C-2.0643702 4.5513323 -3.8809956 6.64667796 -5.625 9.125 C-4.6356383 0.22074468 -4.6356383 0.22074468 0 0 Z " fill="#17467D" transform="translate(378.625,140.875)"/>
<path d="M0 0 C4.95 0 9.9 0 15 0 C14.67 1.32 14.34 2.64 14 4 C13.34 3.67 12.68 3.34 12 3 C12 2.34 12 1.68 12 1 C8.04 1 4.08 1 0 1 C0 0.67 0 0.34 0 0 Z " fill="#254C78" transform="translate(310,130)"/>
<path d="M0 0 C0.99 0 1.98 0 3 0 C5.0625 2.375 5.0625 2.375 7 5 C7.66 5.66 8.32 6.32 9 7 C4.71193127 6.52354792 2.73352513 5.34097516 0 2 C0 1.34 0 0.68 0 0 Z " fill="#1A4D75" transform="translate(233,167)"/>
<path d="M0 0 C3.73639216 1.24546405 4.18756513 2.63404953 6 6 C5.01 6 4.02 6 3 6 C2.67 5.34 2.34 4.68 2 4 C1.01 4.66 0.02 5.32 -1 6 C-1 3 -1 3 0 0 Z " fill="#134F84" transform="translate(300,158)"/>
<path d="M0 0 C0.99 0 1.98 0 3 0 C2.88637738 1.4800841 2.75877092 2.95910074 2.625 4.4375 C2.52058594 5.67306641 2.52058594 5.67306641 2.4140625 6.93359375 C2.27742188 7.61550781 2.14078125 8.29742187 2 9 C1.01 9.495 1.01 9.495 0 10 C0 6.7 0 3.4 0 0 Z " fill="#154C89" transform="translate(271,149)"/>
<path d="M0 0 C0.33 1.65 0.66 3.3 1 5 C0.01 4.67 -0.98 4.34 -2 4 C-2 3.34 -2 2.68 -2 2 C-3.32 2.99 -4.64 3.98 -6 5 C-6.66 4.67 -7.32 4.34 -8 4 C-4.5 0 -4.5 0 0 0 Z " fill="#114077" transform="translate(402,132)"/>
<path d="M0 0 C0.99 0.33 1.98 0.66 3 1 C3 1.99 3 2.98 3 4 C3.99 4.33 4.98 4.66 6 5 C6.33 5.99 6.66 6.98 7 8 C6.34 8.66 5.68 9.32 5 10 C3.35 6.7 1.7 3.4 0 0 Z " fill="#144372" transform="translate(505,158)"/>
<path d="M0 0 C0.33 0.66 0.66 1.32 1 2 C0.0625 4.125 0.0625 4.125 -1 6 C-2.32 5.34 -3.64 4.68 -5 4 C-4.67 3.01 -4.34 2.02 -4 1 C-3.01 1 -2.02 1 -1 1 C-0.67 0.67 -0.34 0.34 0 0 Z " fill="#124980" transform="translate(502,142)"/>
<path d="M0 0 C0 0.99 0 1.98 0 3 C-0.99 3.33 -1.98 3.66 -3 4 C-4.66710346 5.49985609 -4.66710346 5.49985609 -6 7 C-6 4 -6 4 -4.125 1.8125 C-2 0 -2 0 0 0 Z " fill="#164876" transform="translate(240,150)"/>
<path d="M0 0 C-0.33 0.66 -0.66 1.32 -1 2 C-3.64 2 -6.28 2 -9 2 C-6.98558063 -2.02883874 -3.72407517 -0.90585612 0 0 Z " fill="#0D4275" transform="translate(294,172)"/>
</svg>
